<svg width="11" height="10" viewBox="0 0 11 10" fill="none" xmlns="http://www.w3.org/2000/svg">
<path d="M8.64227 2H2.35773C2.16004 2 2 2.22369 2 2.5C2 2.77624 2.16004 3 2.35773 3H8.64227C8.83968 3 9 2.77624 9 2.5C8.99995 2.22369 8.83968 2 8.64227 2Z" fill="#EC5555"/>
<path d="M8.64227 4H2.35773C2.16004 4 2 4.22369 2 4.5C2 4.77624 2.16004 5 2.35773 5H8.64227C8.83968 5 9 4.77624 9 4.5C8.99995 4.22369 8.83968 4 8.64227 4Z" fill="#EC5555"/>
<path d="M9.46696 0H1.53304C0.687886 0 0 0.664714 0 1.48216V6.04371C0 6.86083 0.687886 7.52554 1.53304 7.52554H6.21177L9.58799 10V7.52124C10.3769 7.4612 11 6.82144 11 6.04371V1.48216C11 0.664714 10.3121 0 9.46696 0ZM10.3442 6.04371C10.3442 6.48275 9.95046 6.83991 9.46693 6.83991H8.93215V8.68194L6.41875 6.83991H1.53301C1.04934 6.83991 0.655761 6.48275 0.655761 6.04371V1.48216C0.655761 1.0428 1.04934 0.685661 1.53301 0.685661H9.46693C9.95046 0.685661 10.3442 1.04283 10.3442 1.48216V6.04371Z" fill="#EC5555"/>
</svg>
