<svg width="10" height="9" viewBox="0 0 10 9" fill="none" xmlns="http://www.w3.org/2000/svg">
<path d="M4.95959 9L0.828303 4.8758C0.297519 4.3369 0 3.61085 0 2.85445C0 2.09805 0.297519 1.372 0.828303 0.833096C1.09162 0.569023 1.40445 0.359504 1.74888 0.216546C2.09331 0.0735876 2.46256 0 2.83548 0C3.2084 0 3.57766 0.0735876 3.92209 0.216546C4.26652 0.359504 4.57935 0.569023 4.84266 0.833096L4.95959 0.953562L5.07651 0.833096C5.33982 0.569023 5.65266 0.359504 5.99709 0.216546C6.34152 0.0735876 6.71077 0 7.08369 0C7.45661 0 7.82586 0.0735876 8.17029 0.216546C8.51472 0.359504 8.82756 0.569023 9.09087 0.833096C9.62081 1.37244 9.91775 2.09832 9.91775 2.85445C9.91775 3.61057 9.62081 4.33646 9.09087 4.8758L4.95959 9ZM2.83371 0.705544C2.55361 0.704612 2.27614 0.759602 2.01757 0.86729C1.759 0.974979 1.52452 1.1332 1.32788 1.33268C0.929074 1.7388 0.70563 2.28525 0.70563 2.85445C0.70563 3.42365 0.929074 3.9701 1.32788 4.37622L4.95959 8.00084L8.59129 4.37622C8.9901 3.9701 9.21354 3.42365 9.21354 2.85445C9.21354 2.28525 8.9901 1.7388 8.59129 1.33268C8.39385 1.13502 8.15939 0.978218 7.90132 0.871235C7.64324 0.764252 7.36661 0.709186 7.08723 0.709186C6.80786 0.709186 6.53123 0.764252 6.27315 0.871235C6.01507 0.978218 5.78061 1.13502 5.58318 1.33268L4.95959 1.94918L4.33954 1.33622C4.14248 1.13705 3.908 0.978805 3.64958 0.870571C3.39116 0.762336 3.11389 0.706253 2.83371 0.705544Z" fill="#F15555" fill-opacity="0.97"/>
</svg>
