<svg width="78" height="78" viewBox="0 0 78 78" fill="none" xmlns="http://www.w3.org/2000/svg">
<path d="M53.8934 0.07547H23.8485C17.5877 0.07547 11.5832 2.56259 7.15611 6.9897C2.729 11.4168 0.241882 17.4212 0.241882 23.6821V53.7269C0.241882 59.9878 2.729 65.9923 7.15611 70.4194C11.5832 74.8465 17.5877 77.3336 23.8485 77.3336H53.8934C60.1542 77.3336 66.1587 74.8465 70.5858 70.4194C75.0129 65.9923 77.5 59.9878 77.5 53.7269V23.6821C77.5 17.4212 75.0129 11.4168 70.5858 6.9897C66.1587 2.56259 60.1542 0.07547 53.8934 0.07547V0.07547ZM71.0618 53.7269C71.0567 58.2787 69.2462 62.6426 66.0276 65.8612C62.809 69.0798 58.4451 70.8903 53.8934 70.8954H23.8485C19.2968 70.8903 14.9329 69.0798 11.7143 65.8612C8.49569 62.6426 6.68522 58.2787 6.68006 53.7269V23.6821C6.68517 19.1303 8.49563 14.7664 11.7142 11.5478C14.9328 8.32922 19.2967 6.51876 23.8485 6.51365H53.8934C58.4451 6.51876 62.809 8.32922 66.0277 11.5478C69.2463 14.7664 71.0567 19.1303 71.0618 23.6821V53.7269Z" fill="#EEEBEB"/>
<path d="M38.8711 19.39C35.051 19.39 31.3167 20.5228 28.1405 22.6451C24.9642 24.7674 22.4886 27.7839 21.0268 31.3132C19.5649 34.8424 19.1824 38.7259 19.9277 42.4726C20.6729 46.2192 22.5124 49.6608 25.2136 52.3619C27.9148 55.0631 31.3563 56.9027 35.103 57.6479C38.8496 58.3932 42.7331 58.0107 46.2624 56.5488C49.7917 55.0869 52.8082 52.6113 54.9305 49.4351C57.0528 46.2588 58.1856 42.5246 58.1856 38.7045C58.1856 33.582 56.1507 28.6693 52.5285 25.0471C48.9063 21.4249 43.9936 19.39 38.8711 19.39V19.39ZM38.8711 51.5809C36.3244 51.5809 33.8348 50.8257 31.7173 49.4108C29.5998 47.9959 27.9494 45.9849 26.9749 43.6321C26.0003 41.2792 25.7453 38.6902 26.2421 36.1925C26.739 33.6947 27.9653 31.4003 29.7661 29.5996C31.5669 27.7988 33.8612 26.5724 36.359 26.0756C38.8568 25.5787 41.4458 25.8337 43.7986 26.8083C46.1515 27.7829 48.1625 29.4333 49.5773 31.5508C50.9922 33.6683 51.7474 36.1578 51.7474 38.7045C51.7435 42.1183 50.3857 45.3912 47.9717 47.8052C45.5578 50.2191 42.2849 51.577 38.8711 51.5809Z" fill="#EEEBEB"/>
<path d="M59.754 21.4277C62.4208 21.4277 64.5826 19.2658 64.5826 16.599C64.5826 13.9322 62.4208 11.7704 59.754 11.7704C57.0872 11.7704 54.9254 13.9322 54.9254 16.599C54.9254 19.2658 57.0872 21.4277 59.754 21.4277Z" fill="#EEEBEB"/>
</svg>
