<svg width="78" height="78" viewBox="0 0 78 78" fill="none" xmlns="http://www.w3.org/2000/svg">
<path fill-rule="evenodd" clip-rule="evenodd" d="M68.0077 0.07547H10.5541C5.11319 0.07547 0.651855 4.53729 0.651855 9.97755V67.4314C0.651855 72.8716 5.11319 77.3336 10.5541 77.3336H68.0076C73.4491 77.3336 77.91 72.8716 77.91 67.4315V9.97755C77.91 4.53729 73.4491 0.07547 68.0077 0.07547ZM27.2093 37.3866V61.2381H16.7473V39.1662V31.1397H27.2093V37.3866ZM21.9574 26.6536C19.0469 26.6536 16.6852 24.2936 16.6852 21.3813C16.6852 18.4685 19.0469 16.1115 21.9574 16.1115C24.872 16.1115 27.2314 18.4687 27.2314 21.3813C27.2314 24.2936 24.8721 26.6536 21.9574 26.6536ZM61.8145 44.8208V61.2381H52.8011V46.6182C52.8011 43.1174 52.422 38.6149 47.6241 38.6149C42.7533 38.6149 42.0171 42.4261 42.0171 46.3658V61.2381H33.3256V36.9533V31.1397H41.6952V35.1635H41.7844C43.0328 32.9102 46.0911 31.1365 50.6451 31.1365C58.3181 31.1365 60.9256 34.7648 61.6391 40.4416C61.8084 41.7738 61.8738 43.2113 61.8738 44.8208H61.8145Z" fill="#EEEBEB"/>
</svg>
