<svg width="512" height="512" viewBox="0 0 512 512" fill="none" xmlns="http://www.w3.org/2000/svg">
<path d="M256 0C114.615 0 0 114.615 0 256C0 397.385 114.615 512 256 512C397.385 512 512 397.385 512 256C512 114.615 397.385 0 256 0ZM385.62 232.382C358.436 232.382 331.986 223.56 311.62 208.632L311.458 310.132C311.441 328.939 305.689 347.295 294.969 362.748C284.249 378.201 269.071 390.018 251.461 396.621C233.851 403.224 214.645 404.299 196.408 399.703C178.171 395.107 161.769 385.059 149.391 370.899C137.013 356.739 129.248 339.141 127.131 320.453C125.015 301.765 128.648 282.876 137.546 266.306C146.445 249.737 160.184 236.275 176.932 227.717C193.68 219.16 212.639 215.913 231.28 218.411V268.256C222.487 265.658 213.099 265.895 204.448 268.933C195.796 271.97 188.321 277.655 183.082 285.179C177.843 292.704 175.107 301.688 175.26 310.855C175.414 320.023 178.45 328.91 183.938 336.255C189.426 343.6 197.087 349.031 205.835 351.777C214.583 354.523 223.974 354.445 232.675 351.555C241.376 348.664 248.947 343.107 254.312 335.672C259.678 328.237 262.566 319.301 262.568 310.132V109.333H313.843C313.843 118.758 315.699 128.092 319.306 136.8C322.913 145.508 328.2 153.42 334.865 160.085C341.53 166.749 349.442 172.036 358.15 175.643C366.858 179.25 376.192 181.106 385.617 181.106L385.62 232.382Z" fill="white" fill-opacity="0.7"/>
</svg>
