<svg width="40" height="39" viewBox="0 0 40 39" fill="none" xmlns="http://www.w3.org/2000/svg">
<path fill-rule="evenodd" clip-rule="evenodd" d="M39.3356 7.20451C37.9236 7.8476 36.4032 8.28233 34.8084 8.47658C36.4369 7.47742 37.6867 5.89281 38.2755 4.00558C36.7506 4.93088 35.0657 5.60399 33.2656 5.96487C31.8311 4.39437 29.7805 3.41353 27.5114 3.41353C23.1602 3.41353 19.6301 7.03338 19.6301 11.4978C19.6301 12.1316 19.6976 12.7467 19.8331 13.3391C13.2809 13.001 7.47265 9.78587 3.5814 4.88915C2.90258 6.08736 2.51438 7.47742 2.51438 8.95784C2.51438 11.7614 3.90624 14.2362 6.02195 15.6866C4.73187 15.6472 3.51354 15.2794 2.44893 14.6781V14.7775C2.44893 18.6957 5.1669 21.964 8.77595 22.7044C8.11514 22.8941 7.41801 22.989 6.69837 22.989C6.19098 22.989 5.6947 22.9404 5.21404 22.8455C6.2177 26.0561 9.12751 28.3946 12.5786 28.4571C9.88078 30.6268 6.4795 31.9196 2.78699 31.9196C2.15081 31.9196 1.52153 31.8827 0.905762 31.8085C4.39531 34.0984 8.54117 35.4377 12.9914 35.4377C27.4952 35.4377 35.4236 23.1205 35.4236 12.4366C35.4236 12.085 35.4167 11.7335 35.4032 11.3888C36.9446 10.2485 38.2821 8.82604 39.3356 7.20451Z" fill="#FBFBFB"/>
</svg>
