<svg width="639" height="324" viewBox="0 0 639 324" fill="none" xmlns="http://www.w3.org/2000/svg">
<path fill-rule="evenodd" clip-rule="evenodd" d="M145.5 0L0 324H65.5L178 69L289 324H356.5L211 0H145.5ZM397.5 322L254 0H492C556.4 0 596.167 42 608 63C650.4 121 639.333 193.833 628.5 223C603.7 296.6 532.5 319.667 500 322H490.5H397.5ZM347.5 56.4999L439 264H487.5C497.833 263.833 523.6 259.3 544 242.5C569.5 221.5 584.5 166.5 575.5 133.5C566.5 100.5 538.5 58.9999 493.5 57.4999C448.5 55.9999 347.5 56.4999 347.5 56.4999Z" fill="white"/>
</svg>
